Coordinates
version=1
nRows=4
nColumns=114
inDegrees=yes

Units are S.I. units (second, meters, Newtons, ...)
If the header above contains a line with 'inDegrees', this indicates whether rotational values are in degrees (yes) or radians (no).

endheader 
time	pelvis_tilt	pelvis_list	pelvis_rotation	pelvis_tx	pelvis_ty	pelvis_tz	hip_flexion_l	hip_adduction_l	hip_rotation_l	hip_flexion_r	hip_adduction_r	hip_rotation_r	knee_angle_l	knee_angle_r	ankle_angle_l	ankle_angle_r	subtalar_angle_l	subtalar_angle_r	mtp_angle_l	mtp_angle_r	lumbar_extension	lumbar_bending	lumbar_rotation	arm_flex_l	arm_add_l	arm_rot_l	arm_flex_r	arm_add_r	arm_rot_r	elbow_flex_l	elbow_flex_r	pro_sup_l	pro_sup_r	addbrev_l/activation	addlong_l/activation	addmagDist_l/activation	addmagIsch_l/activation	addmagMid_l/activation	addmagProx_l/activation	bflh_l/activation	bfsh_l/activation	edl_l/activation	ehl_l/activation	fdl_l/activation	fhl_l/activation	gaslat_l/activation	gasmed_l/activation	glmax1_l/activation	glmax2_l/activation	glmax3_l/activation	glmed1_l/activation	glmed2_l/activation	glmed3_l/activation	glmin1_l/activation	glmin2_l/activation	glmin3_l/activation	grac_l/activation	iliacus_l/activation	perbrev_l/activation	perlong_l/activation	piri_l/activation	psoas_l/activation	recfem_l/activation	sart_l/activation	semimem_l/activation	semiten_l/activation	soleus_l/activation	tfl_l/activation	tibant_l/activation	tibpost_l/activation	vasint_l/activation	vaslat_l/activation	vasmed_l/activation	addbrev_r/activation	addlong_r/activation	addmagDist_r/activation	addmagIsch_r/activation	addmagMid_r/activation	addmagProx_r/activation	bflh_r/activation	bfsh_r/activation	edl_r/activation	ehl_r/activation	fdl_r/activation	fhl_r/activation	gaslat_r/activation	gasmed_r/activation	glmax1_r/activation	glmax2_r/activation	glmax3_r/activation	glmed1_r/activation	glmed2_r/activation	glmed3_r/activation	glmin1_r/activation	glmin2_r/activation	glmin3_r/activation	grac_r/activation	iliacus_r/activation	perbrev_r/activation	perlong_r/activation	piri_r/activation	psoas_r/activation	recfem_r/activation	sart_r/activation	semimem_r/activation	semiten_r/activation	soleus_r/activation	tfl_r/activation	tibant_r/activation	tibpost_r/activation	vasint_r/activation	vaslat_r/activation	vasmed_r/activation	
          3.81000000	         -3.13267795	        -18.66591670	         81.26069291	         -0.75185313	          1.03905102	         -0.13931199	         51.86400721	          2.61867442	         14.13764302	         28.00327292	        -34.62476835	         -7.07940714	         40.74590753	         14.84100236	          7.70210663	        -13.95562987	         10.27338890	         -2.30834350	         -0.11813368	          0.23351671	        -53.64124135	          8.48248395	         36.38084491	         -2.75876338	        -23.18097694	       -436.07086111	         23.53125350	         58.10681552	         98.17607419	         65.67168800	         82.14014331	         88.00440958	         93.45248398	          0.01027031	          0.01682019	          0.01003607	          0.01003365	          0.01007090	          0.09567088	          0.02408533	          0.17689431	          0.16005532	          0.07883501	          0.01173477	          0.01059850	          0.02709135	          0.03005439	          0.02081269	          0.03082865	          0.01012985	          0.01058745	          0.01303030	          0.02229017	          0.01005778	          0.01558415	          0.02168621	          0.02072145	          0.12895885	          0.01580060	          0.02108048	          0.07054546	          0.55779946	          0.08919163	          0.45828649	          0.01485796	          0.01024020	          0.01001233	          0.03220046	          0.29324364	          0.01111756	          0.04261190	          0.01364133	          0.01286368	          0.03596536	          0.05408893	          0.01004497	          0.01004657	          0.03496690	          0.13382369	          0.44663333	          0.15908537	          0.45061230	          0.08597187	          0.01038583	          0.01016342	          0.16668552	          0.13278328	          0.01009928	          0.02735131	          0.02504615	          0.01002234	          0.01004724	          0.01009126	          0.01005763	          0.01013659	          0.03662626	          0.03673030	          0.01219218	          0.07792686	          0.11828901	          0.02678754	          0.16856874	          0.05389531	          0.42023072	          0.02001775	          0.01106162	          0.01389999	          0.06976939	          0.53893282	          0.01009987	          0.01002002	          0.01082467	          0.01058932	
          3.82000000	         -2.65746659	        -18.52712888	         82.68374229	         -0.74855514	          1.03529753	         -0.13561253	         53.28709060	          2.45546432	         14.09250701	         28.66955714	        -35.00326995	         -5.91784396	         42.02832691	         15.91395159	          8.97496779	        -13.16289730	         11.22876137	         -1.48178984	         -0.10807828	          0.27401366	        -55.60873606	          9.32254776	         37.64263889	        -12.97061274	        -24.29604689	       -429.90377482	          3.78202557	         68.26591535	        112.88486161	         69.50713541	         56.82459852	         87.26709957	         92.48524563	          0.03817972	          0.01966127	          0.01004982	          0.01004193	          0.01016688	          0.27452305	          0.07016560	          0.26330131	          0.13355719	          0.06753310	          0.01011021	          0.01004189	          0.11263767	          0.02515197	          0.01734797	          0.02569455	          0.01041341	          0.01001081	          0.01086349	          0.01857702	          0.01004869	          0.01299348	          0.01807578	          0.34636098	          0.10747393	          0.01318976	          0.01757384	          0.05879017	          0.46726729	          0.07435174	          0.46223141	          0.25751462	          0.01159117	          0.01000789	          0.03108472	          0.49490751	          0.01002522	          0.03551067	          0.01136931	          0.01072312	          0.02997322	          0.04507511	          0.01002880	          0.01003028	          0.02914044	          0.11152261	          0.49738511	          0.13269707	          0.49891284	          0.20621892	          0.01025559	          0.01011027	          0.13904747	          0.11067247	          0.01008409	          0.10306295	          0.02087472	          0.01001829	          0.01003979	          0.01008265	          0.01004669	          0.01012626	          0.03369650	          0.03062139	          0.01018219	          0.08794433	          0.11959014	          0.03918777	          0.14048502	          0.04494176	          0.80667630	          0.01763455	          0.01080825	          0.01158598	          0.05818444	          0.68537445	          0.01006209	          0.01001304	          0.01000345	          0.01000756	
          3.83000000	         -2.09836837	        -18.20664697	         83.94318204	         -0.74528555	          1.03157811	         -0.13234803	         54.55675766	          2.26567773	         14.21509869	         29.30159863	        -35.23195082	         -4.76141212	         43.50001880	         17.30726233	         10.15934319	        -11.63863769	         12.00129792	         -1.21735835	         -0.09685435	          0.29721899	        -57.77819056	          9.96626949	         39.75344775	        -20.75434122	        -25.28841355	       -423.75597340	        -40.15122549	         73.32888382	        136.62660058	         70.40968438	         27.09303609	         86.65976736	         89.14557145	          0.03192164	          0.01695127	          0.01006149	          0.01005017	          0.01069043	          0.22917463	          0.51014209	          0.22041652	          0.25139142	          0.05630877	          0.01764657	          0.01442974	          0.10781963	          0.05460449	          0.01446142	          0.02141681	          0.35565342	          0.01001222	          0.01001371	          0.01548303	          0.01004169	          0.01083939	          0.01506794	          0.39664228	          0.08956836	          0.01100348	          0.01464885	          0.04899608	          0.38940339	          0.06198363	          0.40434194	          0.41899772	          0.36321527	          0.01000907	          0.03848089	          0.46748216	          0.02020571	          0.02959297	          0.01000370	          0.01000803	          0.02497986	          0.03756364	          0.01002197	          0.01002416	          0.02428508	          0.09293824	          0.48405555	          0.71088238	          0.47474498	          0.20140872	          0.01005140	          0.01002417	          0.12847514	          0.09862745	          0.01006123	          0.10179109	          0.01739829	          0.01001574	          0.01003430	          0.01006801	          0.01004054	          0.01011931	          0.02819980	          0.02553209	          0.01005618	          0.09982215	          0.10450465	          0.04549287	          0.11708396	          0.03748241	          0.93553634	          0.30060913	          0.03560753	          0.01000254	          0.04855029	          0.75458318	          0.01001237	          0.01000633	          0.01000204	          0.01000450	
          3.84000000	         -1.45281462	        -17.81958161	         84.98092650	         -0.74190955	          1.02857900	         -0.13006519	         55.57380475	          2.03236936	         14.61355473	         29.98111274	        -35.20441762	         -3.62625181	         45.01799758	         18.98209665	         11.29510857	         -9.65330236	         12.55264858	         -1.48130740	         -0.08136857	          0.30472613	        -59.79376405	         10.43523408	         42.68249410	        -25.12046101	        -26.04869800	       -416.69577704	        -86.49464809	         65.20529563	        129.68611003	         68.07391344	         10.22093958	         85.69433417	         83.49686726	          0.02678064	          0.01875864	          0.01196171	          0.01023928	          0.01205538	          0.38153544	          0.42513611	          0.18376103	          0.24845056	          0.15231066	          0.01471983	          0.01203539	          0.08988196	          0.04552967	          0.01205637	          0.01785132	          0.29640233	          0.01001093	          0.01001646	          0.01290532	          0.01003673	          0.01002993	          0.01256338	          0.46554291	          0.07464844	          0.01010048	          0.01223984	          0.04083264	          0.41997884	          0.05168456	          0.33727130	          0.34916808	          0.30272991	          0.01000906	          0.03563745	          0.47427202	          0.01684193	          0.02466162	          0.01000483	          0.01001037	          0.02081899	          0.03130418	          0.01002289	          0.01002681	          0.02023909	          0.07745123	          0.40338464	          0.66039709	          0.43382572	          0.20023877	          0.01011914	          0.01004082	          0.11678356	          0.08219488	          0.01063516	          0.08489904	          0.01450128	          0.01001476	          0.01004002	          0.01022815	          0.01003656	          0.01012547	          0.02367205	          0.02129208	          0.01002166	          0.08319294	          0.08709325	          0.07942002	          0.09758576	          0.03128079	          0.97849857	          0.29004602	          0.02972297	          0.01000326	          0.04055120	          0.79141353	          0.01002453	          0.01000601	          0.01000189	          0.01000417	
